<svg width="224" height="224" viewBox="0 0 224 224" fill="none" xmlns="http://www.w3.org/2000/svg">
<path d="M76.8185 87.5435H77.5792C77.4999 87.4688 77.5792 87.4688 77.5792 87.3942C77.1219 87.5435 76.8932 87.5435 76.8185 87.5435Z" fill="#003330"/>
<path d="M82.7403 87.6208C84.4109 87.6955 86.4596 87.6955 88.8909 87.6955C88.8909 87.0842 88.8909 86.4775 88.9656 85.8708C86.6136 86.2488 84.5602 86.5522 82.8149 86.7062C80.3089 87.0842 78.4889 87.3175 77.5789 87.3922C77.5789 87.4669 77.4996 87.4668 77.5789 87.5415C78.4889 87.5415 80.1596 87.6208 82.7403 87.6208Z" fill="#003330"/>
<path d="M97.391 208.28C96.4063 204.775 95.417 200.659 94.507 195.857C84.259 178.936 79.3216 153.325 77.427 128.401C76.4376 114.984 76.363 101.036 77.5763 87.5443H76.8203C76.895 87.5443 77.1236 87.5443 77.5763 87.3903C78.7943 72.4523 81.5243 57.9717 85.855 45.3161C88.207 38.5355 91.1656 32.8188 94.6563 28.1708C95.2676 24.6615 95.8743 21.4601 96.6303 18.6415C98.5296 10.3301 100.578 4.92146 102.627 1.33746C91.6976 4.99613 81.6783 15.6688 73.7076 30.9148C62.7736 51.8728 55.7923 81.445 55.7923 113.001C55.7923 142.424 61.257 171.007 72.4896 191.742C72.4896 191.816 72.569 191.816 72.569 191.891C80.9176 207.212 91.623 217.73 102.856 221.926C100.961 218.874 99.1363 214.529 97.391 208.28Z" fill="#003330"/>
<path d="M67.9373 194.102C65.0533 188.842 62.5473 183.051 60.3446 176.798C51.0113 162.317 45.6959 145.167 43.1899 128.4C38.9386 100.12 43.3439 69.5528 59.9666 45.3193C61.1799 43.5646 62.4726 41.8893 63.8399 40.284C70.9753 22.8307 80.4626 9.26465 91.3173 1.71912C40.3059 11.248 -6.10352e-05 59.2633 -6.10352e-05 113.004C-6.10352e-05 142.498 11.0039 171.16 33.3993 191.889C49.2613 206.524 69.6079 216.893 91.0886 221.387C82.4366 215.442 74.5406 206.221 67.9373 194.102Z" fill="#003330"/>
<path d="M133.599 1.87085C139.899 5.98685 145.667 12.0115 150.754 19.5528C157.283 22.0682 163.508 25.7273 168.973 30.4542C181.269 41.0522 186.963 59.7982 170.34 69.4815C170.34 69.4815 170.265 69.4815 170.265 69.5562C171.479 75.4269 172.463 81.5962 173.149 88.0035L173.224 88.4608C188.027 88.5355 204.729 88.4608 223.554 88.4608C213.833 44.4028 178.311 10.0286 133.599 1.87085Z" fill="#003330"/>
<path d="M223.931 97.6688C196.169 97.5195 179.906 97.6688 179.906 97.6688C199.035 106.279 203.207 131.218 201.844 149.208C200.248 169.937 190.532 192.654 172.01 204.848C163.055 210.719 152.807 214.149 142.176 215.292C139.446 218.265 136.711 220.626 133.981 222.53C148.023 220.094 161.533 214.835 173.606 206.22C206.17 183.125 223.931 142.273 223.931 104.235C223.931 103.064 224.085 97.6688 223.931 97.6688Z" fill="#003330"/>
<path d="M125.022 215.444C124.948 215.518 124.948 215.598 124.868 215.672C125.172 215.672 125.554 215.598 125.858 215.518C125.554 215.518 125.326 215.444 125.022 215.444Z" fill="#003330"/>
<path d="M76.8185 87.5435H77.5792C77.4999 87.4688 77.5792 87.4688 77.5792 87.3942C77.1219 87.5435 76.8932 87.5435 76.8185 87.5435Z" fill="#003330"/>
<path d="M135.649 88.2315V88.3062C144.684 88.3808 155.384 88.4602 167.984 88.4602V88.3062C155.842 88.3062 145.136 88.3062 135.649 88.2315Z" fill="#003330"/>
<path d="M76.8185 87.5435H77.5792C77.4999 87.4688 77.5792 87.4688 77.5792 87.3942C77.1219 87.5435 76.8932 87.5435 76.8185 87.5435Z" fill="#003330"/>
<path d="M165.33 71.5375C160.85 48.6708 152.651 29.4633 142.253 16.7326C136.028 9.11194 128.967 3.77327 121.454 1.49127C123.503 4.76727 125.173 9.1866 126.69 14.4459C126.919 15.2113 127.147 16.0466 127.376 16.8866C132.159 19.3273 136.714 23.8213 140.583 30.4526C146.808 41.0506 149.692 59.8013 141.264 69.4799C140.13 70.7773 137.853 72.2239 134.964 73.6706C135.043 75.3506 135.118 76.9513 135.193 78.4726C135.421 82.3599 135.575 85.7153 135.65 88.2306C145.137 88.3053 155.843 88.3053 167.985 88.3053C167.304 82.5139 166.469 76.9508 165.33 71.5375Z" fill="#003330"/>
<path d="M135.649 88.2315V88.4602C144.684 88.5348 155.384 88.4602 167.984 88.4602C167.984 88.5348 167.984 88.3808 167.984 88.4602C155.842 88.4602 145.136 88.3062 135.649 88.2315Z" fill="#003330"/>
<path d="M168.215 97.6683H142.688C152.255 106.278 157.813 131.217 157.131 149.207C156.296 169.936 151.438 192.654 142.175 204.848C137.321 211.176 131.628 214.606 125.855 215.52C125.552 215.595 125.174 215.67 124.871 215.67C123.961 218.339 122.897 220.934 121.529 222.992C125.935 221.769 130.335 219.328 134.512 215.749C137.396 213.159 140.28 210.032 142.935 206.22C159.334 183.124 168.215 142.272 168.215 104.235C168.215 98.5975 168.289 97.6683 168.215 97.6683Z" fill="#003330"/>
<path d="M121.092 97.6684C123.481 97.6591 125.045 107.748 125.362 109.4C126.179 113.666 126.501 118.006 126.734 122.336C127.219 131.287 126.944 140.252 126.846 149.207C126.617 169.936 125.021 192.654 121.909 204.848C121.302 207.134 120.695 209.118 120.014 210.644C119.403 212.24 118.721 213.462 117.961 214.377C117.657 214.68 117.433 214.909 117.205 215.063C116.36 215.796 115.277 215.987 114.265 215.446C113.691 215.138 113.219 214.666 112.795 214.167C109.719 210.532 108.231 205.328 107.115 200.778C105.902 195.799 105.235 190.708 104.535 185.64C101.912 166.702 101.053 147.494 100.577 128.399C100.381 120.788 100.321 113.172 100.349 105.56C100.423 85.4749 101.109 65.2869 103.387 45.3182C104.525 35.332 106.121 27.5569 108.016 22.2229C109.234 18.6389 110.601 16.1982 112.043 15.0549C112.547 14.6349 113.191 14.3409 113.854 14.3176C114.535 14.2896 115.114 14.6396 115.623 15.0689C116.953 16.1749 117.704 17.7476 118.343 19.3249C119.482 21.9196 120.541 25.6529 121.456 30.4549C122.912 37.9822 123.425 45.7709 123.383 53.4336C123.355 59.1782 123.211 65.1236 121.041 70.5322C119.029 75.5349 115.077 79.7582 111.087 83.2629L105.781 88.4569C105.771 88.8629 130.477 88.8629 130.486 88.4569C130.211 83.0576 129.945 77.3502 129.637 71.9462C128.643 54.4696 126.174 37.39 122.819 20.24C122.632 19.2787 122.399 18.3267 122.151 17.3794C121.666 15.5174 121.12 13.6694 120.509 11.8494C119.902 10.0387 119.225 8.25137 118.423 6.52471C117.877 5.35337 117.27 4.20537 116.542 3.14137C115.996 2.33871 115.38 1.56871 114.624 0.957375C113.523 0.0660414 111.861 -0.283959 110.536 0.257375C109.855 0.532708 109.281 1.01804 108.781 1.54537C108.109 2.25937 107.559 3.08071 107.069 3.92537C106.429 5.01737 105.893 6.16537 105.407 7.33204C104.81 8.76004 104.292 10.2254 103.821 11.7C103.265 13.436 102.775 15.1954 102.323 16.964C102.019 18.182 101.716 19.4794 101.338 20.8514C100.731 23.7447 100.125 26.7967 99.5179 30.1474C96.8393 45.3047 95.4113 60.6907 94.5339 76.0482C94.1746 82.3622 93.8993 88.6809 93.7173 94.9996C93.1106 115.836 93.4839 136.71 94.8746 157.51C96.2093 177.408 98.5659 197.349 105.356 216.211C105.533 216.701 105.715 217.191 105.907 217.676C107.003 220.425 109.071 223.972 112.449 224C113.943 224.014 115.343 223.178 116.332 222.058C117.321 220.938 117.951 219.552 118.511 218.162C119.375 216.029 120.098 213.84 120.742 211.633C121.279 209.804 121.759 207.96 122.217 206.112C122.674 204.297 122.959 202.426 123.304 200.582C124.018 196.746 124.685 192.896 125.278 189.042C125.871 185.196 126.393 181.337 126.827 177.473C129.781 151.223 130.752 124.072 130.537 97.6684C127.387 97.6778 124.242 97.6591 121.092 97.6684Z" fill="#003330"/>
</svg>
