<svg width="433" height="136" viewBox="0 0 433 136" fill="none" xmlns="http://www.w3.org/2000/svg">
<path d="M129.491 0.863281H127.123V122.016H129.491V0.863281Z" fill="#003330"/>
<path d="M61.5097 53.2222C62.7273 53.2222 63.5164 58.2842 63.6743 59.1092C64.0801 61.25 64.2605 63.4353 64.3732 65.5984C64.6213 70.1029 64.486 74.6074 64.4183 79.0896C64.3056 89.5034 63.4939 100.921 61.9156 107.053C61.5999 108.213 61.3068 109.194 60.946 109.952C60.6304 110.755 60.2921 111.379 59.9088 111.825C59.751 111.981 59.6383 112.093 59.5255 112.16C59.0971 112.539 58.556 112.628 58.0374 112.36C57.7443 112.204 57.5188 111.959 57.2933 111.714C55.7375 109.885 54.9709 107.276 54.4072 105.002C53.7984 102.504 53.4602 99.9396 53.0995 97.3975C51.7692 87.8756 51.3408 78.2422 51.0927 68.6311C51.0026 64.8179 50.9575 60.9824 50.98 57.1692C51.0251 47.0675 51.3633 36.9436 52.5132 26.9088C53.0995 21.8914 53.9112 17.989 54.8582 15.3131C55.467 13.5068 56.1659 12.2803 56.91 11.7228C57.158 11.5221 57.4962 11.3661 57.8345 11.3438C58.1727 11.3438 58.4658 11.4998 58.7364 11.7228C59.4128 12.2803 59.7961 13.0608 60.1118 13.8636C60.698 15.157 61.2391 17.0524 61.6901 19.4608C62.4342 23.2517 62.6822 27.1541 62.6596 31.0119C62.6596 33.8885 62.5694 36.8767 61.4646 39.5972C60.45 42.117 58.4432 44.2355 56.414 45.9971L53.7083 48.6062C53.7083 48.8069 66.2447 48.8069 66.2672 48.6062C66.1319 45.8857 65.9967 43.0313 65.8388 40.3108C65.3428 31.5248 64.0801 22.9395 62.3665 14.3319C62.2763 13.8413 62.1636 13.373 62.0283 12.9047C61.7803 11.9681 61.5097 11.0539 61.194 10.1173C60.8784 9.203 60.5402 8.31102 60.1343 7.44134C59.8637 6.86156 59.5481 6.28177 59.1873 5.74658C58.9167 5.34519 58.6011 4.9661 58.2178 4.65391C57.6541 4.20792 56.8198 4.02952 56.1434 4.29711C55.8052 4.43091 55.5121 4.67621 55.2415 4.9438C54.9033 5.30059 54.6102 5.72428 54.3621 6.14797C54.0465 6.70546 53.7759 7.28525 53.5279 7.86503C53.2122 8.57862 52.9642 9.3145 52.7162 10.0504C52.423 10.9201 52.175 11.812 51.9496 12.704C51.7917 13.3061 51.6339 13.9751 51.4535 14.6664C51.1378 16.1158 50.8447 17.6545 50.5291 19.3493C49.1762 26.9534 48.4547 34.6913 48.0037 42.4069C47.8234 45.5735 47.6881 48.7623 47.5979 51.9288C47.2822 62.3873 47.4851 72.8903 48.1841 83.3265C48.8605 93.3166 50.0556 103.329 53.5053 112.806C53.5955 113.052 53.6857 113.297 53.7759 113.542C54.3396 114.925 55.3768 116.709 57.0904 116.709C57.857 116.709 58.556 116.285 59.052 115.728C59.5481 115.17 59.8637 114.479 60.1569 113.765C60.5853 112.695 60.9686 111.602 61.2842 110.487C61.5548 109.573 61.8028 108.636 62.0283 107.722C62.2538 106.808 62.4116 105.871 62.5694 104.935C62.9302 103.017 63.2684 101.077 63.5615 99.1368C63.8546 97.1968 64.1252 95.2567 64.3507 93.3166C65.8614 80.1377 66.3349 66.4904 66.2221 53.2222C64.6213 53.2222 63.0204 53.2222 61.4195 53.2222" fill="#003330"/>
<path d="M85.4554 53.2222H72.4905C77.3383 57.5483 80.1792 70.0806 79.8185 79.1119C79.3901 89.5257 76.9324 100.943 72.22 107.075C69.7623 110.242 66.8536 111.981 63.9225 112.427C63.7646 112.472 63.5842 112.494 63.4264 112.494C62.9755 113.832 62.4343 115.126 61.7354 116.174C63.9676 115.549 66.1998 114.345 68.3418 112.539C69.8074 111.245 71.273 109.662 72.6258 107.744C80.9459 96.1487 85.4554 75.6108 85.4554 56.5225C85.4554 53.6905 85.5005 53.2222 85.4554 53.2222Z" fill="#003330"/>
<path d="M68.9053 48.4946V48.6061C73.4824 48.6507 78.9389 48.6061 85.3424 48.6061C85.3424 48.6507 85.3424 48.5615 85.3424 48.6061C79.1644 48.6061 73.7304 48.5392 68.9053 48.4946Z" fill="#003330"/>
<path d="M83.9899 40.088C81.7126 28.6038 77.5413 18.9481 72.2652 12.5481C69.1086 8.71262 65.5235 6.03669 61.6904 4.89941C62.7276 6.54958 63.5844 8.75722 64.351 11.4109C64.4638 11.79 64.5765 12.2136 64.6893 12.6373C67.1244 13.8638 69.4242 16.1161 71.4084 19.461C74.5651 24.7906 76.0307 34.2009 71.7466 39.0622C71.1604 39.7089 70.0105 40.4448 68.5449 41.1584C68.59 42.0058 68.6125 42.8085 68.6576 43.5667C68.7704 45.5291 68.8605 47.2015 68.8831 48.4726C73.7083 48.5172 79.1422 48.5172 85.3202 48.5172C84.982 45.6183 84.5536 42.8085 83.9674 40.088" fill="#003330"/>
<path d="M39.0293 48.1382H39.4126C39.4126 48.1382 39.4126 48.0936 39.4126 48.0713C39.1871 48.1382 39.0744 48.1382 39.0293 48.1382Z" fill="#003330"/>
<path d="M68.9053 48.4946V48.5392C73.4824 48.5838 78.9389 48.6061 85.3424 48.6061V48.5392C79.1644 48.5392 73.7304 48.5392 68.9053 48.4946Z" fill="#003330"/>
<path d="M39.0293 48.1382H39.4126C39.4126 48.1382 39.4126 48.0936 39.4126 48.0713C39.1871 48.1382 39.0744 48.1382 39.0293 48.1382Z" fill="#003330"/>
<path d="M63.4934 112.383C63.4934 112.383 63.4483 112.45 63.4258 112.494C63.5836 112.494 63.764 112.45 63.9218 112.427C63.764 112.427 63.6513 112.383 63.4934 112.383Z" fill="#003330"/>
<path d="M113.753 53.2226C99.6605 53.1557 91.3855 53.2226 91.3855 53.2226C101.104 57.5487 103.223 70.081 102.524 79.1123C101.712 89.5262 96.7744 100.943 87.3721 107.076C82.8175 110.019 77.609 111.736 72.2201 112.316C70.8222 113.81 69.4468 114.992 68.0488 115.951C75.1739 114.725 82.0509 112.093 88.1838 107.745C104.734 96.1491 113.753 75.6113 113.753 56.5229C113.753 55.9208 113.843 53.2226 113.753 53.2226Z" fill="#003330"/>
<path d="M67.8682 5.1001C71.0699 7.17395 74.0011 10.1844 76.5715 13.9753C79.886 15.2464 83.0427 17.0749 85.816 19.461C92.0617 24.7905 94.9478 34.2009 86.515 39.0622C86.515 39.0622 86.4699 39.0622 86.4699 39.1068C87.0787 42.0503 87.5973 45.15 87.9355 48.3834L87.9806 48.6064C95.4889 48.651 103.989 48.6064 113.549 48.6064C108.612 26.463 90.5735 9.2032 67.8682 5.1001Z" fill="#003330"/>
<path d="M34.5203 101.679C33.0547 99.0478 31.792 96.1266 30.6647 92.9824C25.9297 85.7127 23.224 77.1051 21.9613 68.6759C19.7967 54.4712 22.0289 39.1068 30.4843 26.9313C31.0931 26.0616 31.7469 25.2142 32.4459 24.4115C36.0761 15.6478 40.8787 8.82412 46.4028 5.0332C20.4732 9.80529 0 33.9333 0 60.938C0 75.7672 5.59179 90.1503 16.9557 100.564C25.0052 107.923 35.3545 113.119 46.2675 115.371C41.8708 112.383 37.8573 107.745 34.4977 101.657" fill="#003330"/>
<path d="M49.4691 108.793C48.9731 107.031 48.477 104.957 48.0035 102.549C42.795 94.0527 40.2923 81.1859 39.3227 68.6536C38.8267 61.9192 38.7816 54.9172 39.3903 48.1381H39.007C39.007 48.1381 39.1649 48.1381 39.3903 48.0712C39.9991 40.5563 41.3971 33.2867 43.5842 26.9313C44.7792 23.5195 46.2899 20.6429 48.0486 18.3237C48.3643 16.562 48.6574 14.9565 49.0407 13.5293C50.0102 9.35931 51.0474 6.63878 52.0846 4.83252C46.5379 6.66108 41.4422 12.0353 37.3836 19.684C31.8369 30.2093 28.2744 45.0608 28.2744 60.9157C28.2744 75.7003 31.0478 90.0611 36.7523 100.475C36.7523 100.52 36.7974 100.52 36.7974 100.564C41.0363 108.258 46.4703 113.542 52.1748 115.639C51.2053 114.1 50.2808 111.915 49.4015 108.793" fill="#003330"/>
<path d="M42.0282 48.1827C42.885 48.2273 43.9222 48.2273 45.1398 48.2273C45.1398 47.9151 45.1398 47.6029 45.1849 47.313C43.9899 47.5137 42.9527 47.6698 42.0508 47.7367C40.7881 47.9374 39.8411 48.0489 39.3902 48.0712C39.3902 48.1158 39.3451 48.1158 39.3902 48.1381C39.8411 48.1381 40.6979 48.1827 42.0057 48.1827" fill="#003330"/>
<path d="M39.0293 48.1382H39.4126C39.4126 48.1382 39.4126 48.0936 39.4126 48.0713C39.1871 48.1382 39.0744 48.1382 39.0293 48.1382Z" fill="#003330"/>
<path d="M403.398 90.8865C403.398 86.2259 407.141 84.1074 413.003 84.1074C418.865 84.1074 423.24 86.6273 423.736 92.0237C423.736 92.3582 423.984 92.6035 424.322 92.6035H430.184C430.5 92.6035 430.748 92.3582 430.748 92.0237C430.252 83.1931 422.901 79.0454 413.071 79.0454C403.24 79.0454 396.228 83.3046 396.228 91.377C396.228 108.392 424.976 99.4718 424.976 110.488C424.976 115.148 420.759 117.757 414.469 117.757C406.96 117.757 402.834 114.747 402.586 108.035C402.586 107.7 402.338 107.455 402 107.455H395.889C395.551 107.455 395.303 107.7 395.303 108.035C395.551 117.913 402.744 122.886 414.13 122.886C424.367 122.886 432.146 118.159 432.146 109.908C432.146 92.269 403.398 101.323 403.398 90.8642M392.665 106.139H386.735C386.42 106.139 386.149 106.385 386.081 106.719C385.495 113.587 381.369 117.49 374.762 117.49C366.33 117.423 362.384 111.692 362.384 100.988C362.384 90.2844 366.352 84.4865 374.762 84.4865C380.625 84.4865 384.683 87.7645 385.653 93.8746C385.721 94.2091 385.991 94.4544 386.307 94.4544H392.169C392.507 94.4544 392.755 94.2091 392.665 93.8746C391.853 84.9771 385.337 78.9339 374.74 78.9339C361.865 78.9339 354.673 87.8314 354.673 101.077C354.673 114.323 361.865 122.975 374.56 122.975C385.54 122.975 392.395 116.107 393.229 106.719C393.229 106.385 392.981 106.139 392.643 106.139M350.434 80.4949C350.434 80.1604 350.186 79.9151 349.87 79.9151H343.354C343.016 79.9151 342.767 80.1604 342.767 80.4949L342.925 100.341L342.767 121.414C342.767 121.749 343.016 121.994 343.354 121.994H349.87C350.186 121.994 350.434 121.749 350.434 121.414L350.276 100.275L350.434 80.5172V80.4949ZM349.938 67.0929H343.421C343.083 67.0929 342.835 67.3382 342.835 67.6727V74.697C342.835 75.0092 343.083 75.2768 343.421 75.2768H349.938C350.276 75.2768 350.524 75.0315 350.524 74.697V67.6727C350.524 67.3605 350.276 67.0929 349.938 67.0929ZM339.205 85.1332V80.4949C339.205 80.1604 338.957 79.9151 338.619 79.9151H328.63L328.788 69.9472C328.788 69.6127 328.54 69.3675 328.202 69.3675H321.776C321.438 69.3675 321.189 69.6127 321.189 69.9472L321.257 79.9151H316.297C315.981 79.9151 315.733 80.1604 315.733 80.4949V85.1332C315.733 85.4677 315.981 85.713 316.297 85.713H321.257L321.189 110.376C321.189 119.541 326.466 122.708 332.666 122.708C334.65 122.708 336.792 122.15 338.529 121.637C338.844 121.571 339.092 121.236 339.092 120.902V116.642C339.092 116.397 338.844 116.152 338.529 116.241C337.356 116.575 335.71 116.821 333.974 116.821C330.411 116.821 328.675 115.282 328.675 110.198L328.608 85.6907H338.596C338.934 85.6907 339.182 85.4454 339.182 85.1109M313.997 79.8928H307.39C307.052 79.8928 306.737 80.1381 306.646 80.4726L296.41 112.316L284.257 80.4726C284.189 80.1381 283.851 79.8928 283.513 79.8928H276.162C275.846 79.8928 275.666 80.1381 275.846 80.4726L292.509 122.039L287.887 135.285C287.819 135.597 288.045 135.865 288.293 135.865H294.313C294.628 135.865 294.967 135.597 295.057 135.285L314.38 80.4726C314.448 80.1381 314.312 79.8928 313.974 79.8928M273.253 65.3535C273.253 65.0414 273.005 64.7961 272.667 64.7961H266.309C265.971 64.7961 265.723 65.0414 265.723 65.3535L265.971 93.0495L265.723 121.392C265.723 121.727 265.971 121.972 266.309 121.972H272.667C273.005 121.972 273.253 121.727 273.253 121.392L273.005 92.9826L273.253 65.3758V65.3535ZM241.123 117.311C233.119 117.311 229.308 110.532 229.308 100.498C229.308 91.2655 232.938 84.821 240.695 84.5757H242.115C249.128 85.0663 253.096 91.1095 253.006 101.323C252.938 111.937 248.451 117.334 241.101 117.334M260.176 80.4949C260.176 80.1604 259.928 79.9151 259.612 79.9151H253.164C252.825 79.9151 252.577 80.1604 252.577 80.4949L252.735 86.2928C249.917 81.6322 245.385 79.09 239.342 79.09C228.113 79.09 221.597 88.9018 221.597 101.077C221.597 113.253 227.707 122.797 239.184 122.797C245.362 122.797 249.917 119.92 252.803 115.193L252.645 121.392C252.645 121.727 252.893 121.972 253.209 121.972H259.567C259.883 121.972 260.131 121.727 260.131 121.392L259.883 100.564L260.131 80.4726L260.176 80.4949ZM218.08 104.021V95.614C218.08 84.6649 212.533 78.9562 203.784 78.9562C197.02 78.9562 192.218 82.7917 189.67 87.0286L189.828 80.4949C189.828 80.1604 189.579 79.9151 189.241 79.9151H183.041C182.725 79.9151 182.477 80.1604 182.477 80.4949L182.635 102.794L182.387 121.414C182.387 121.749 182.635 121.994 182.973 121.994H189.58C189.918 121.994 190.166 121.749 190.166 121.414L189.985 104.021V97.6655C191.654 89.3255 196.186 84.9102 201.71 84.9102C207.234 84.9102 210.729 88.3443 210.729 95.9484V104.021L210.571 121.414C210.571 121.749 210.819 121.994 211.157 121.994H217.674C217.989 121.994 218.237 121.749 218.237 121.414L218.08 104.021ZM180.245 121.414L160.087 65.3758C160.02 65.0637 159.681 64.8184 159.343 64.8184H152.647L154.541 70.2371L164.281 98.4683H145.612C145.274 98.4683 144.98 98.7359 144.98 99.0927V104.333C144.98 104.668 145.251 104.957 145.612 104.957H166.513L172.286 121.437C172.376 121.771 172.691 122.017 173.03 122.017H179.794C180.132 122.017 180.29 121.771 180.2 121.437M352.44 20.5985C345.428 20.5985 341.279 25.0807 340.22 33.0193H364.097C363.849 26.3294 359.971 20.5985 352.463 20.5985M370.974 43.6338C371.313 43.6338 371.561 43.8791 371.471 44.2136C370.23 52.8658 363.782 59.2435 352.801 59.2435C339.588 59.2435 332.486 50.1676 332.486 37.3454C332.486 24.5232 340.084 15.202 352.395 15.202C364.706 15.202 372.057 23.6089 372.215 37.6576C372.215 37.9921 371.967 38.2374 371.628 38.2374H339.994C340.242 48.3613 344.549 53.7578 352.869 53.7578C359.227 53.7578 362.948 50.4129 364.188 44.1913C364.278 43.8568 364.526 43.6115 364.842 43.6115H370.952L370.974 43.6338ZM312.103 59.1543C300.694 59.1543 293.524 54.1815 293.276 44.2805C293.276 43.946 293.524 43.7007 293.862 43.7007H299.972C300.31 43.7007 300.558 43.946 300.558 44.2805C300.807 50.9704 304.933 54.0031 312.441 54.0031C318.709 54.0031 322.926 51.3941 322.926 46.7335C322.926 35.7175 294.178 44.615 294.178 27.6228C294.178 19.5281 300.942 15.2912 311.021 15.2912C321.099 15.2912 328.202 19.4612 328.698 28.2695C328.698 28.604 328.45 28.8493 328.112 28.8493H322.249C321.911 28.8493 321.663 28.604 321.663 28.2695C321.167 22.873 317.041 20.3532 310.93 20.3532C304.82 20.3532 301.348 22.4716 301.348 27.1322C301.348 37.5907 330.096 28.5148 330.096 46.1537C330.096 54.4045 322.339 59.132 312.103 59.132M271.562 53.5794C279.747 53.5794 283.625 47.0457 283.625 37.6576C283.625 27.6005 279.837 20.8215 271.743 20.8215C264.482 20.8215 259.928 26.2848 259.86 36.8325C259.77 47.4471 264.077 53.5794 271.585 53.5794M273.479 59.0428C267.617 59.0428 263.084 56.5899 260.176 52.0185L260.334 71.5528C260.334 71.8873 260.086 72.1326 259.747 72.1326H253.231C252.893 72.1326 252.645 71.8873 252.645 71.5528L252.893 39.9321L252.645 16.7407C252.645 16.4062 252.893 16.1609 253.231 16.1609H259.68C260.018 16.1609 260.266 16.4062 260.266 16.7407L260.108 22.873C262.994 18.2124 267.617 15.3581 273.659 15.3581C285.136 15.3581 291.246 24.8354 291.246 37.0778C291.246 49.3202 284.73 59.0428 273.479 59.0428ZM240.109 11.5003C239.77 11.5003 239.522 11.255 239.522 10.9205V3.94076C239.522 3.60627 239.77 3.36098 240.109 3.36098H246.625C246.963 3.36098 247.211 3.60627 247.211 3.94076V10.9651C247.211 11.2996 246.963 11.5449 246.625 11.5449H240.109V11.5003ZM240.018 58.2177C239.68 58.2177 239.432 57.9724 239.432 57.6379L239.59 36.5649L239.432 16.7184C239.432 16.3839 239.68 16.1386 240.018 16.1386H246.535C246.873 16.1386 247.121 16.3839 247.121 16.7184L246.963 36.498L247.121 57.6602C247.121 57.9947 246.873 58.24 246.535 58.24H240.018V58.2177ZM226.648 58.2177C226.309 58.2177 226.061 57.9724 226.061 57.6379L226.309 29.2953L226.061 1.59932C226.061 1.26483 226.309 1.01953 226.648 1.01953H233.006C233.344 1.01953 233.592 1.26483 233.592 1.59932L233.344 29.2061L233.592 57.6379C233.592 57.9724 233.344 58.2177 233.006 58.2177H226.648ZM203.604 59.1989C190.887 59.1989 183.695 50.5467 183.695 37.3008C183.695 24.0549 190.887 15.1574 203.762 15.1574C214.337 15.1574 220.853 21.2006 221.687 30.0981C221.777 30.4326 221.529 30.6778 221.191 30.6778H215.329C214.991 30.6778 214.743 30.4326 214.675 30.0981C213.683 23.9657 209.647 20.71 203.762 20.71C195.329 20.71 191.383 26.7531 191.383 37.2116C191.383 47.6701 195.352 53.624 203.762 53.7132C210.368 53.7132 214.495 49.7885 215.081 42.9426C215.171 42.6081 215.419 42.3628 215.735 42.3628H221.687C222.025 42.3628 222.273 42.6081 222.273 42.9426C221.439 52.3306 214.585 59.1989 203.604 59.1989ZM145.792 58.2177C145.454 58.2177 145.206 57.9724 145.206 57.6379L145.454 28.7155L145.206 1.59932C145.206 1.26483 145.454 1.01953 145.792 1.01953H181.057C181.395 1.01953 181.643 1.26483 181.643 1.59932V6.5721C181.643 6.9066 181.395 7.15189 181.057 7.15189H153.052L152.804 24.6347H179.072C179.411 24.6347 179.659 24.88 179.659 25.2145V30.1873C179.659 30.5218 179.411 30.767 179.072 30.767H152.804L153.052 52.0854H181.71C182.049 52.0854 182.297 52.3306 182.297 52.6651V57.6379C182.297 57.9724 182.049 58.2177 181.71 58.2177H145.792Z" fill="#003330"/>
</svg>
